<?xml version="1.0" encoding="utf-8"?>
<!-- Generator: Adobe Illustrator 14.0.0, SVG Export Plug-In . SVG Version: 6.00 Build 43363)  -->
<!DOCTYPE svg PUBLIC "-//W3C//DTD SVG 1.1//EN" "http://www.w3.org/Graphics/SVG/1.1/DTD/svg11.dtd">
<svg version="1.1" id="Layer_1" xmlns="http://www.w3.org/2000/svg" xmlns:xlink="http://www.w3.org/1999/xlink" x="0px" y="0px"
	 width="457.221px" height="97.292px" viewBox="0 0 457.221 97.292" enable-background="new 0 0 457.221 97.292"
	 xml:space="preserve">
<g>
	<path fill-rule="evenodd" clip-rule="evenodd" fill="#EC1C2E" d="M45.379,38.658l-0.167-7.356h-0.543l-0.042,1.212
		c-0.669,0.25-1.379,0.25-2.006,0.25c-0.92,0-1.714-0.125-2.759-0.167c-1.296,0-3.01,0.209-5.727,1.17
		c1.338-0.251,2.382-0.334,3.302-0.334c2.8,0,3.887,0.878,5.935,0.836c0.418,0,0.752-0.042,1.254-0.084l-0.125,4.473H45.379
		L45.379,38.658z M49.601,39.201c0.042-0.334-0.168-0.71,0.167-1.086c0.126-0.125,0.25-0.251,0.376-0.459l1.546-0.794
		c1.296-0.836,2.258-1.923,3.302-3.093c0.418-0.125,1.129,0,1.631,0.125l0.711,0.334c0.167,0.167,0.25,0.334,0.459,0.543
		c0.835-0.25,1.546-0.376,2.424-0.376c0.376,0,0.543,0.167,0.877,0.46c0.711,1.003,0.585,0.668,1.212,1.337l0.795,1.212
		c0.543,0.669,1.588,1.923,2.216,3.051c1.546,1.839,3.26,3.971,5.6,5.56c0.795-0.752,1.589-1.296,2.634-1.839
		c0.836,0.167,2.006,0.585,2.801,1.296c1.463,1.588,3.051,3.009,4.849,4.389c0.209,0,0.334,0,0.585,0
		c0.543-0.209,1.045-0.502,1.546-1.045c0.126,0,0.335,0,0.461,0c0.71,0.125,2.467,1.003,3.761,1.922
		c0.502,0.377,0.669,0.67,0.878,1.004c0.084-0.042,0.251-0.209,0.376-0.334c0.21-0.209,0.753-0.125,1.088-0.209
		c0.585,0.084,0.794,0.334,1.17,0.793l2.382,1.172c0.544-3.721,0.585-6.981,0.251-10.617c-0.543-5.434-1.421-8.569-3.344-13.584
		c-2.132-5.476-5.977-10.909-9.78-14.797c-2.675-2.759-5.099-4.765-8.443-6.896c-2.383-1.505-5.727-3.26-8.526-4.263
		c-4.891-1.797-9.697-2.801-14.253-2.968c-5.393-0.167-9.53,0.209-14.881,1.671c-2.926,0.794-5.559,1.839-8.192,3.135
		c-1.63,0.836-2.968,1.588-4.431,2.549c-3.093,1.923-5.768,4.18-8.652,7.148c-1.881,1.964-3.051,3.469-4.389,5.35
		c-2.508,3.511-4.43,7.189-5.81,11.16c-1.547,4.347-2.508,9.321-2.675,13.334c-0.125,3.594,0,7.524,0.794,11.034
		c0,0,0.627-0.793,1.296-0.961c0.083,0,0.292,0,0.418,0c2.006-1.756,4.18-3.721,6.354-4.807c1.463-0.543,2.424-0.878,3.469-1.672
		c1.295-1.086,2.842-1.504,4.18-2.633c0.125-0.083,0.125-0.376,0.25-0.669c0.418-0.585,1.087-1.044,1.672-1.337H20.3
		c0.376-0.209,0.501-0.586,0.71-1.045c1.546-2.257,3.344-3.219,4.723-5.058l0.92-0.46c0.501-0.167,0.961-0.125,1.504,0.084
		c0.083-0.126,0.376-0.251,0.669-0.209c0.585,0,0.877-0.167,1.337,0.334l1.045,0.627c0.627,0.501,1.045,1.045,1.546,1.546
		L49.601,39.201L49.601,39.201z"/>
	<g>
		<path fill-rule="evenodd" clip-rule="evenodd" fill="#0060A8" d="M70.458,70.174l1.212-2.801c0.126-0.377-0.042-0.627-0.501-0.711
			l-1.547,3.512H70.458L70.458,70.174z M31,38.993c-0.209,0-0.292,1.17-0.042,1.337h1.546c-0.502,3.135-0.71,5.935-0.752,8.569
			c-0.042,3.135,0.334,6.061,1.421,9.279H22.432c-0.418-0.586-0.585-0.92-0.752-1.422l0.961-0.836v-1.086h-1.505l-0.585-1.338
			h-0.836l0.126,1.379h-1.338l0.251,1.254l1.463,0.795c0.167,0.543,0.25,0.793,0.376,1.254H1.658
			c1.421,5.182,2.759,8.275,5.058,12.205c2.466,4.18,4.849,7.105,7.356,9.529c2.383,2.342,4.514,4.096,7.106,5.852
			c3.762,2.467,6.771,3.971,11.244,5.518c4.054,1.422,8.443,2.007,12.748,2.299c1.797,0.084,3.428,0.043,5.309-0.125
			c4.221-0.251,8.276-1.17,12.373-2.592c2.716-0.919,5.475-2.299,8.484-4.055c2.928-1.713,6.02-4.18,8.903-7.021
			c1.797-1.756,2.634-2.842,4.222-4.891c3.762-4.849,6.604-10.91,8.025-16.719H52.359c0.084-3.679,0.627-5.727,1.296-8.318
			c0.793-3.093,2.005-6.479,4.013-9.572h1.086c0.501,0,0.46-1.337,0.042-1.295H31L31,38.993z"/>
		<path fill-rule="evenodd" clip-rule="evenodd" fill="#FFFFFF" d="M52.86,66.997c-2.006-1.588-3.929-2.424-7.398-2.508v2.508H52.86
			L52.86,66.997z M39.109,66.956h5.309v-2.467c-1.589,0-2.759,0.377-3.679,0.795C39.778,65.743,38.983,66.37,39.109,66.956
			L39.109,66.956z M68.66,70.174l2.926-7.148l-12.371,1.045l-1.965,2.592l-3.386,0.251c-1.965-2.717-1.965-6.646-1.965-10.073
			c0-3.178,1.003-6.438,1.756-8.862c0.751-2.674,1.964-5.35,3.719-8.066h1.296c0.042-0.167,0.042-0.334,0-0.502l-27.294-0.042
			c-0.167,0-0.208,0.669,0,0.669h1.63c-0.543,2.843-0.794,5.852-0.794,8.903c0,3.094,0.293,6.27,1.63,9.697
			c0.752,1.965,1.588,3.846,2.55,5.686c0.585,1.17,0.836,1.546,1.504,2.591c-1.253-0.083-2.466-0.21-3.762-0.585
			c-1.755-0.46-3.385-1.213-4.681-1.797c-0.961-0.461-2.173-1.088-3.26-2.007c-1.839-1.505-3.051-2.759-4.054-4.097
			c-0.376-0.501-0.627-1.003-0.92-1.881l1.045-0.794v-0.501h-1.379l-0.501-1.422h-0.334l0.167,1.379h-1.338l0.084,0.627l1.546,0.753
			c0.752,2.508,1.713,5.644,2.424,7.733c0.627,1.922,1.379,3.971,2.09,5.852H68.66L68.66,70.174z"/>
	</g>
</g>
<path fill-rule="evenodd" clip-rule="evenodd" fill="#0060A8" d="M124.592,81.721c3.518,0.224,7.188,0.074,10.481-1.199
	c3.293-1.271,6.438-2.994,9.136-5.314c3.293-2.844,6.362-6.438,7.633-10.706c1.425-4.94,1.275-10.106-0.896-15.198
	c-0.674-1.797-1.648-3.069-3.369-5.091c-2.919-3.368-6.363-6.513-8.986-10.256c-1.347-1.872-2.543-4.643-2.019-7.188
	c0.749-3.293,1.723-5.166,3.593-6.812c1.946-1.647,5.541-2.696,8.16-1.573c4.718,1.946,9.21,6.29,10.107,11.38l8.161-8.085
	c-1.873-2.695-4.94-5.39-8.834-6.812c-4.269-1.497-8.834-1.647-12.577-0.823c-2.246,0.523-3.445,1.347-5.017,2.846
	c-2.395,2.169-4.117,3.742-6.512,6.811c-1.648,2.172-2.547,3.219-4.045,5.99c-1.419,3.294-1.945,7.563-0.821,11.38
	c0.524,1.648,2.169,3.818,3.966,5.841c2.695,3.142,5.168,6.138,7.564,9.132c2.394,3.07,4.492,6.363,3.666,10.48
	c-0.374,1.947-0.972,3.07-2.246,4.643c-1.797,2.172-4.417,3.52-6.438,4.192c-4.118,1.274-8.76-0.448-11.605-2.471
	c-3.219-2.32-5.39-6.663-6.588-10.706c-0.822-2.694-1.42-5.09-1.795-7.936l-7.861,14.823c0.822,1.647,2.021,3.519,2.995,4.866
	c1.195,1.646,4.19,4.642,6.661,5.84C119.276,80.749,122.196,81.571,124.592,81.721L124.592,81.721z M411.855,60.235
	c3.291-2.172,5.162-3.594,6.512-5.84c1.198-1.872,2.02-4.866,1.796-6.438c-0.149-0.6-1.05-1.947-1.87-1.872
	c-0.823,0.074-1.873,0.898-2.248,1.572c-0.898,1.646-1.424,2.994-1.944,4.342C413.275,54.321,412.376,57.016,411.855,60.235
	L411.855,60.235z M365.883,72.288c1.05-0.225,2.173-0.897,3.373-2.695c1.196-1.647,2.169-3.519,2.843-5.465
	c1.198-3.369,1.872-5.465,2.472-9.21c0.375-2.47,0.375-4.042-0.452-5.838c-0.745-1.873-1.868-2.396-3.517-2.545
	c-1.948-0.225-4.042,0.823-5.541,2.695c-2.167,2.77-3.367,6.288-4.268,9.508c-0.822,2.845-0.973,6.289-0.374,9.656
	c0.224,1.799,1.721,3.371,2.921,3.895C364.088,72.663,365.061,72.513,365.883,72.288L365.883,72.288z M268.634,97.292
	c3.071,0,5.692-0.074,8.536-0.448c2.47-0.375,4.79-1.123,6.812-1.797c2.77-1.049,5.988-2.621,9.731-4.643
	c4.642-2.545,9.062-5.24,13.327-8.311c2.997-2.02,5.766-3.816,8.31-6.062c3.073-2.695,4.79-5.018,5.989-7.787
	c0.977-2.171,1.872-4.566,2.549-6.812l2.618-8.461l13.928-0.674l-4.495,12.878c-0.748,2.022-1.196,3.969-1.274,5.689
	c-0.149,1.946-0.149,3.369,0.603,4.644c0.894,1.646,3.291,1.945,5.766,1.123c3.218-0.9,7.637-2.847,10.179-4.645
	c0.75,2.846,3.967,5.242,6.963,5.392c2.245,0.149,6.139-0.224,9.211-1.647c2.769-1.198,4.265-2.021,6.733-4.042
	c3.82-3.145,6.518-7.037,8.686-11.454c1.425-3.145,2.022-5.466,2.022-8.236c1.274-0.523,2.921-0.748,4.118-0.225l-3.146,9.808
	c-0.898,2.846-1.721,5.765-2.095,8.235c-0.448,2.32-0.302,4.792,0.149,5.691c0.599,1.347,1.721,2.543,2.992,2.77
	c2.547,0.447,5.842-1.349,7.862-2.697c2.696-1.871,4.569-2.994,7.562-5.389c0,2.096,0.524,3.742,2.173,5.316
	c1.195,1.347,4.714,2.244,6.513,1.87c2.769-0.3,5.614-1.87,8.684-3.743c1.945-1.122,3.373-1.946,5.017-3.594
	c-0.075,1.422,0.072,2.472,0.524,4.269c0.598,1.722,1.721,3.218,3.443,3.144c3.444-0.524,10.405-5.016,15.122-8.534l-0.374-3.521
	c-1.574,1.499-3.067,2.771-4.643,3.745c-1.721,0.974-2.693,1.721-4.565,1.571c-0.749-0.598-1.049-1.571-0.674-2.695l10.63-39.903
	c0.225-0.974,1.722-1.797,2.625-1.348l3.89,1.498l6.587-6.289l-7.259-0.823c-1.049-0.075-2.1,0.3-2.921,0.898l-11.229,10.257
	c-0.9,0.824-1.574,2.022-1.798,2.845l-7.638,28.974c-3.364,3.594-5.61,5.316-8.683,6.663c-2.1,0.823-3.82,0.898-5.317-1.198
	c-0.748-1.348-1.047-2.395-0.896-4.267c5.762-3.819,7.782-5.54,12.499-10.257c1.124-1.048,2.1-2.172,2.621-3.219
	c1.122-2.246,1.573-5.167,0.751-7.412c-0.451-1.123-1.574-2.172-2.999-2.545c-1.866-0.599-4.039-0.225-5.833,0.373
	c-4.646,1.499-8.463,4.941-11.009,8.91c-1.646,2.695-2.248,4.342-3.068,6.664c-1.124,3.294-1.648,6.214-2.097,9.134
	c-2.697,2.095-5.541,3.518-8.162,4.191c-1.196,0.299-2.321-0.074-2.094-1.123c1.418-7.336,2.994-11.829,4.787-18.491h6.593
	l2.844-4.343h-7.861l3.967-14.898l-8.983,4.043l-3.519,11.081c-2.096,0-3.292-0.075-5.465,1.048
	c-0.973-2.098-2.771-4.043-4.642-5.017c-4.192-2.021-8.76-1.198-13.176,0.375c-1.797,0.599-3.522,1.571-5.24,2.919
	c-3.82,2.846-6.737,6.513-8.613,11.454c-1.497,4.116-2.095,7.262-2.169,10.78c-1.725,1.348-4.941,2.621-6.065,2.098
	c-1.124-0.824-0.598-3.22,0-5.765c0.301-1.647,1.647-6.439,3.223-11.305l6.212-20.29c0.899-3.143,1.047-4.715,3.145-7.113
	c1.271-1.196,3.667-1.196,5.393-0.897c0.896,0.374,1.348,0.674,2.096,1.273l6.139-7.787l-7.039-0.225
	c-1.799,0-3.442,0.599-4.642,1.423l-11.005,9.807c-0.822,0.824-1.498,2.022-2.097,3.294l-4.642,14.974l-13.776,0.599
	c2.096-7.636,4.269-15.647,6.591-23.284l2.169-0.824l6.513-7.859c-5.09,1.347-12.275,2.319-18.865,2.695
	c-7.71,0.448-16.92,0.749-22.685,0.298c-8.085-0.748-16.322-1.87-24.329-2.845c-4.793-0.598-9.883-0.972-14.524-1.122
	c-4.867-0.149-9.66,0.226-13.926,0.75c-2.847,0.149-4.866,0.448-7.037,1.271c-3.67,1.572-7.039,3.37-9.883,5.615
	c-1.721,1.272-2.396,1.497-2.396,3.594c-0.074,1.347,0.375,2.395,1.721,3.219l12.806,6.738c-0.676-1.498-0.6-3.444,0.222-4.866
	c0.9-1.723,2.322-2.846,4.42-3.894c2.844-1.422,4.865-2.246,8.758-3.144c9.21-2.172,17.968-2.846,27.701-2.771
	c14.074,0,27.1,0.749,42.074,2.396c-0.899,1.123-1.2,1.571-1.647,1.947l-5.99,22.235l-4.189,4.492l2.917-0.225l-1.271,5.166
	c-1.048,4.043-1.724,7.262-2.921,10.854c-0.82,2.546-1.872,4.642-3.145,6.439c-1.422,2.095-3.218,3.294-6.363,5.39
	c-1.572,1.049-3.295,2.021-4.642,2.77c-5.24,2.697-10.929,5.018-15.274,5.84c-5.688,1.273-11.752,0.6-17.441-0.748
	c-5.241-1.273-11.38-5.765-14.151-10.106c-1.721,3.144-3.892,6.214-5.689,9.282c2.547,3.07,9.059,6.589,13.927,7.861
	C263.17,96.768,265.64,97.218,268.634,97.292L268.634,97.292z M195.714,70.192c1.124-0.15,2.472-0.748,3.52-1.272
	c1.57-0.599,2.546-1.722,2.919-2.921l4.643-19.016c-1.196-0.824-2.918-1.423-4.416-1.423c-1.272,0-2.62,0.375-3.52,1.723
	c-2.097,2.995-3.218,6.214-3.894,9.733c-0.598,3.219-1.198,6.513-1.198,9.882C193.768,68.245,193.844,70.34,195.714,70.192
	L195.714,70.192z M261.746,53.197c1.05-1.572,1.798-3.519,1.648-5.99c-0.151-1.571-0.898-2.17-2.021-1.945
	c-0.898,0.149-1.349,0.673-2.022,1.497c-1.271,1.423-2.245,3.968-3.144,6.738l-1.122,4.566
	C259.276,56.042,260.549,54.917,261.746,53.197L261.746,53.197z M232.398,64.952c1.499-4.941,2.324-9.059,3.894-13.776l3.894-3.893
	c-2.694-0.6-6.514-1.198-9.357,0.374c-0.75,0.373-1.723,1.348-2.322,2.395c-1.947,3.371-3.293,6.439-4.266,10.184
	c-0.899,3.518-0.227,5.839,1.124,8.086C227.531,67.047,230.004,65.999,232.398,64.952L232.398,64.952z M221.396,90.629
	c2.545-0.749,4.865-2.17,5.614-4.939l4.717-15.873c-4.865,1.423-8.609,3.893-10.932,5.764c-3.52,2.995-4.716,4.269-6.588,6.889
	c-1.273,1.947-1.797,3.146-2.021,4.417c-0.297,2.247,0.676,4.268,2.921,4.717C216.303,91.903,218.101,91.603,221.396,90.629
	L221.396,90.629z M214.731,96.02c2.096-0.224,3.744-0.674,5.989-1.422c2.919-0.898,4.417-1.497,7.785-3.744
	c3.518-2.32,6.663-5.239,7.786-9.582c1.424-5.541,2.697-10.258,3.894-15.646l5.614-1.498c-0.15,2.395-0.15,4.043,0,5.017
	c0.225,1.721,1.049,4.042,2.246,5.313c1.722,1.723,4.268,2.547,5.916,2.174c2.769-0.526,5.763-2.321,8.908-4.118
	c1.573-0.974,3.143-2.022,4.791-3.369c0.448-0.375,1.199-1.199,1.497-1.798c0.076-0.373,0-0.674-0.073-0.824
	c-0.451-0.748-0.976-0.523-1.424-0.148c-2.918,1.797-3.667,2.32-7.112,3.967c-1.198,0.375-2.397,0.824-3.818,0.45
	c-1.572-0.3-2.545-1.646-2.769-3.069c-0.302-1.871-0.149-3.594,0.448-5.916c7.038-2.844,10.706-4.789,15.123-9.807
	c0.598-0.748,1.197-1.646,1.572-2.545c2.395-0.674,3.743-1.197,5.914-2.321l-8.759,30.995c3.219-1.198,6.737-2.771,9.507-3.969
	l5.539-20.888c0.902-1.572,2.92-2.62,4.417-3.294c2.323-1.123,3.671-0.897,3.296,0.898c-1.572,6.514-2.92,12.354-4.418,18.642
	c-0.748,3.146,0,5.466,2.099,6.515c1.72,0.823,3.667,0.073,5.464-0.824c3.296-1.572,5.163-2.92,10.106-6.663
	c0.6-0.374,0-2.246-0.373-2.022c-2.771,1.349-4.867,2.397-7.413,2.995c-0.524,0.149-1.197-0.3-1.423-0.748
	c-0.298-0.674,0.226-2.022,0.526-3.069l4.863-17.595c0.378-1.571,0.6-2.469,0-3.442c-0.674-1.049-2.469-2.246-4.342-1.797
	c-2.919,0.45-8.01,3.369-11.528,5.465l1.122-4.417c0.45-1.721-0.373-3.368-2.545-2.469c-1.198,0.524-3.146,1.872-4.566,2.396
	c-2.545,1.123-4.193,1.497-6.887,2.171c0.297-1.424-0.226-2.771-1.348-3.745c-2.321-1.947-5.614-1.272-8.159-0.373
	c-2.322,0.749-4.644,2.095-6.665,3.744c-2.096,1.721-5.09,4.94-6.289,7.187c-1.645,2.919-2.471,5.092-3.444,8.16l-4.865,1.273
	l4.492-15.199l6.139-5.764c-4.191-0.15-8.235-0.15-12.203-0.3c-2.321,0-3.819,0.45-4.718,0.824
	c-3.368,1.198-5.465,2.321-7.935,4.118c-4.643,3.444-8.46,7.786-10.182,13.401c-0.75,2.545-1.049,5.391-1.049,8.01
	c-0.897,0.749-1.646,1.123-2.618,1.423c-0.973,0.299-1.799,0.448-2.247-0.376c-0.524-0.896-0.524-2.994-0.226-4.415l4.866-18.642
	l4.044-4.942c-5.617,0.226-12.13-0.448-15.647,0.151c-3.221,0.523-7.187,2.62-9.508,4.791c-3.295,3.22-6.14,6.961-7.861,11.68
	c-0.748,2.395-1.199,4.641-1.572,6.887c-0.375,2.545-0.375,4.418-0.448,6.663c-2.021,1.798-4.269,2.771-5.017,1.048l-6.889-17.293
	l8.912-7.562c0.521-0.449,1.346-0.449,1.944,0.151l2.395,2.095l6.291-8.686c-2.174-1.572-3.446-2.095-4.57-1.795
	c-1.794,0.148-4.714,1.87-6.512,3.593l-15.723,13.251l7.564-27.999c1.197-3.145,5.238-2.545,7.783-1.573l6.29-7.936l-7.486,0.524
	c-1.871,0.749-2.096,0.824-3.894,2.022c-2.92,2.396-7.263,5.989-10.854,8.908c-1.049,1.274-1.425,2.845-2.023,4.417l-11.604,42.973
	l9.435-1.571l3.52-13.327l1.946-1.346c1.571,4.192,3.518,8.608,5.389,13.475c1.124,2.171,4.343,2.921,7.713,1.947
	c2.245-0.674,4.268-1.797,5.914-2.995c1.122,2.622,5.091,4.269,8.982,2.845c2.919-1.122,5.092-3.145,7.339-5.09
	c0.298,1.123,0.822,2.021,1.496,2.62c0.823,0.749,2.771,1.571,4.042,1.423c2.172-0.151,5.99-2.171,9.808-4.344
	c0.9,0.975,1.947,1.349,2.621,1.573c-4.941,3.667-11.156,8.235-14.749,12.952c-2.096,2.694-2.994,4.566-2.47,7.785
	c0.374,2.021,3.816,3.369,5.614,3.594C209.716,96.394,211.289,96.544,214.731,96.02L214.731,96.02z"/>
</svg>
